<mxfile host="65bd71144e">
    <diagram id="jhGbWp6inycF2hxArFDT" name="join2.sv">
        <mxGraphModel dx="2163" dy="1230" grid="1" gridSize="10" guides="1" tooltips="1" connect="1" arrows="1" fold="1" page="1" pageScale="1" pageWidth="1169" pageHeight="827" math="1" shadow="0">
            <root>
                <mxCell id="0"/>
                <mxCell id="1" parent="0"/>
                <mxCell id="29" style="edgeStyle=orthogonalEdgeStyle;rounded=0;html=1;exitX=0.25;exitY=1;exitDx=0;exitDy=0;" parent="1" source="2" target="10" edge="1">
                    <mxGeometry relative="1" as="geometry"/>
                </mxCell>
                <mxCell id="2" value="module 2" style="rounded=0;whiteSpace=wrap;html=1;align=center;verticalAlign=middle;spacingLeft=2;container=1;" parent="1" vertex="1">
                    <mxGeometry x="350" y="180" width="190" height="90" as="geometry"/>
                </mxCell>
                <mxCell id="14" style="edgeStyle=none;html=1;exitX=0.75;exitY=0;exitDx=0;exitDy=0;entryX=0.75;entryY=1;entryDx=0;entryDy=0;" parent="1" source="3" target="4" edge="1">
                    <mxGeometry relative="1" as="geometry"/>
                </mxCell>
                <mxCell id="3" value="&lt;div style=&quot;&quot;&gt;&lt;span style=&quot;&quot;&gt;module 3&lt;/span&gt;&lt;/div&gt;" style="rounded=0;html=1;align=center;verticalAlign=middle;labelBorderColor=none;labelBackgroundColor=none;whiteSpace=wrap;spacingLeft=2;container=1;" parent="1" vertex="1">
                    <mxGeometry x="140" y="530" width="400" height="80" as="geometry"/>
                </mxCell>
                <mxCell id="13" style="edgeStyle=none;html=1;exitX=0.25;exitY=1;exitDx=0;exitDy=0;entryX=0.25;entryY=0;entryDx=0;entryDy=0;" parent="1" source="4" target="3" edge="1">
                    <mxGeometry relative="1" as="geometry"/>
                </mxCell>
                <mxCell id="30" style="edgeStyle=orthogonalEdgeStyle;rounded=0;html=1;exitX=0.25;exitY=1;exitDx=0;exitDy=0;entryX=0.5;entryY=-0.006;entryDx=0;entryDy=0;entryPerimeter=0;" parent="1" source="19" target="10" edge="1">
                    <mxGeometry relative="1" as="geometry"/>
                </mxCell>
                <mxCell id="19" value="module 1" style="rounded=0;whiteSpace=wrap;html=1;align=center;verticalAlign=middle;spacingLeft=2;container=1;" parent="1" vertex="1">
                    <mxGeometry x="140" y="180" width="190" height="90" as="geometry">
                        <mxRectangle x="140" y="180" width="90" height="30" as="alternateBounds"/>
                    </mxGeometry>
                </mxCell>
                <mxCell id="24" value="" style="group;verticalAlign=middle;align=center;fillColor=default;strokeColor=#d6b656;" parent="1" vertex="1" connectable="0">
                    <mxGeometry x="140" y="370" width="400" height="80" as="geometry"/>
                </mxCell>
                <mxCell id="4" value="&lt;div style=&quot;&quot;&gt;&lt;br&gt;&lt;/div&gt;&lt;div style=&quot;&quot;&gt;&lt;br&gt;&lt;/div&gt;&lt;div style=&quot;&quot;&gt;join2&lt;/div&gt;" style="rounded=0;whiteSpace=wrap;html=1;align=center;verticalAlign=top;spacingLeft=2;" parent="24" vertex="1">
                    <mxGeometry width="400" height="80" as="geometry"/>
                </mxCell>
                <mxCell id="10" value="[1:0] in_valid" style="text;html=1;align=center;verticalAlign=middle;resizable=0;points=[];autosize=1;strokeColor=none;fillColor=none;" parent="24" vertex="1">
                    <mxGeometry x="55" width="90" height="30" as="geometry"/>
                </mxCell>
                <mxCell id="11" value="out_ready" style="text;html=1;align=center;verticalAlign=middle;resizable=0;points=[];autosize=1;strokeColor=none;fillColor=none;" parent="24" vertex="1">
                    <mxGeometry x="265" y="50" width="80" height="30" as="geometry"/>
                </mxCell>
                <mxCell id="17" value="[1:0] in_ready" style="text;html=1;align=center;verticalAlign=middle;resizable=0;points=[];autosize=1;strokeColor=none;fillColor=none;" parent="24" vertex="1">
                    <mxGeometry x="255" width="100" height="30" as="geometry"/>
                </mxCell>
                <mxCell id="18" value="out_valid" style="text;html=1;align=center;verticalAlign=middle;resizable=0;points=[];autosize=1;strokeColor=none;fillColor=none;" parent="24" vertex="1">
                    <mxGeometry x="65" y="50" width="70" height="30" as="geometry"/>
                </mxCell>
                <mxCell id="27" style="edgeStyle=orthogonalEdgeStyle;rounded=0;html=1;entryX=0.75;entryY=1;entryDx=0;entryDy=0;" parent="1" source="17" target="19" edge="1">
                    <mxGeometry relative="1" as="geometry">
                        <Array as="points">
                            <mxPoint x="445" y="340"/>
                            <mxPoint x="283" y="340"/>
                        </Array>
                    </mxGeometry>
                </mxCell>
                <mxCell id="28" style="edgeStyle=orthogonalEdgeStyle;rounded=0;html=1;entryX=0.75;entryY=1;entryDx=0;entryDy=0;" parent="1" source="17" target="2" edge="1">
                    <mxGeometry relative="1" as="geometry">
                        <Array as="points">
                            <mxPoint x="445" y="340"/>
                            <mxPoint x="493" y="340"/>
                        </Array>
                    </mxGeometry>
                </mxCell>
                <mxCell id="eImVbssGhE7UipKVxKd4-30" value="if only one data stream is valid, stall this stream by setting its in_ready = 0 and wait for another" style="text;html=1;align=center;verticalAlign=middle;resizable=0;points=[];autosize=1;strokeColor=none;fillColor=none;" parent="1" vertex="1">
                    <mxGeometry x="40" y="40" width="520" height="30" as="geometry"/>
                </mxCell>
            </root>
        </mxGraphModel>
    </diagram>
    <diagram id="dFs9Mf6hXrM-C7wsq0Ua" name="register_slice.sv">
        <mxGraphModel dx="1514" dy="861" grid="1" gridSize="10" guides="1" tooltips="1" connect="1" arrows="1" fold="1" page="1" pageScale="1" pageWidth="1169" pageHeight="827" math="0" shadow="0">
            <root>
                <mxCell id="0"/>
                <mxCell id="1" parent="0"/>
                <mxCell id="XRwoykwUwVjjJaJcpaBU-4" style="edgeStyle=none;html=1;exitX=0.25;exitY=1;exitDx=0;exitDy=0;entryX=0.25;entryY=0;entryDx=0;entryDy=0;" parent="1" source="XRwoykwUwVjjJaJcpaBU-1" target="XRwoykwUwVjjJaJcpaBU-2" edge="1">
                    <mxGeometry relative="1" as="geometry"/>
                </mxCell>
                <mxCell id="XRwoykwUwVjjJaJcpaBU-17" style="edgeStyle=none;html=1;exitX=0.75;exitY=1;exitDx=0;exitDy=0;entryX=0.75;entryY=0;entryDx=0;entryDy=0;" parent="1" source="XRwoykwUwVjjJaJcpaBU-1" target="XRwoykwUwVjjJaJcpaBU-2" edge="1">
                    <mxGeometry relative="1" as="geometry"/>
                </mxCell>
                <mxCell id="XRwoykwUwVjjJaJcpaBU-1" value="previous module" style="rounded=0;whiteSpace=wrap;html=1;" parent="1" vertex="1">
                    <mxGeometry x="240" y="200" width="360" height="80" as="geometry"/>
                </mxCell>
                <mxCell id="XRwoykwUwVjjJaJcpaBU-7" style="edgeStyle=none;html=1;exitX=0.25;exitY=1;exitDx=0;exitDy=0;entryX=0.25;entryY=0;entryDx=0;entryDy=0;" parent="1" source="XRwoykwUwVjjJaJcpaBU-2" target="XRwoykwUwVjjJaJcpaBU-3" edge="1">
                    <mxGeometry relative="1" as="geometry"/>
                </mxCell>
                <mxCell id="XRwoykwUwVjjJaJcpaBU-16" style="edgeStyle=none;html=1;exitX=0.5;exitY=0;exitDx=0;exitDy=0;entryX=0.5;entryY=1;entryDx=0;entryDy=0;" parent="1" source="XRwoykwUwVjjJaJcpaBU-2" target="XRwoykwUwVjjJaJcpaBU-1" edge="1">
                    <mxGeometry relative="1" as="geometry"/>
                </mxCell>
                <mxCell id="XRwoykwUwVjjJaJcpaBU-18" style="edgeStyle=none;html=1;exitX=0.75;exitY=1;exitDx=0;exitDy=0;entryX=0.75;entryY=0;entryDx=0;entryDy=0;" parent="1" source="XRwoykwUwVjjJaJcpaBU-2" target="XRwoykwUwVjjJaJcpaBU-3" edge="1">
                    <mxGeometry relative="1" as="geometry"/>
                </mxCell>
                <mxCell id="XRwoykwUwVjjJaJcpaBU-2" value="register_slice" style="rounded=0;whiteSpace=wrap;html=1;" parent="1" vertex="1">
                    <mxGeometry x="240" y="360" width="360" height="120" as="geometry"/>
                </mxCell>
                <mxCell id="XRwoykwUwVjjJaJcpaBU-19" style="edgeStyle=none;html=1;exitX=0.5;exitY=0;exitDx=0;exitDy=0;entryX=0.5;entryY=1;entryDx=0;entryDy=0;" parent="1" source="XRwoykwUwVjjJaJcpaBU-3" target="XRwoykwUwVjjJaJcpaBU-2" edge="1">
                    <mxGeometry relative="1" as="geometry"/>
                </mxCell>
                <mxCell id="XRwoykwUwVjjJaJcpaBU-3" value="next module" style="rounded=0;whiteSpace=wrap;html=1;" parent="1" vertex="1">
                    <mxGeometry x="240" y="560" width="360" height="80" as="geometry"/>
                </mxCell>
                <mxCell id="XRwoykwUwVjjJaJcpaBU-14" value="in_valid" style="text;html=1;align=center;verticalAlign=middle;resizable=0;points=[];autosize=1;strokeColor=none;fillColor=none;" parent="1" vertex="1">
                    <mxGeometry x="295" y="360" width="60" height="30" as="geometry"/>
                </mxCell>
                <mxCell id="XRwoykwUwVjjJaJcpaBU-15" value="in_ready&lt;br&gt;" style="text;html=1;align=center;verticalAlign=middle;resizable=0;points=[];autosize=1;strokeColor=none;fillColor=none;" parent="1" vertex="1">
                    <mxGeometry x="380" y="360" width="70" height="30" as="geometry"/>
                </mxCell>
                <mxCell id="XRwoykwUwVjjJaJcpaBU-20" value="[IN_WIDTH-1:0] &lt;br&gt;in_data" style="text;html=1;align=center;verticalAlign=middle;resizable=0;points=[];autosize=1;strokeColor=none;fillColor=none;" parent="1" vertex="1">
                    <mxGeometry x="460" y="360" width="110" height="40" as="geometry"/>
                </mxCell>
                <mxCell id="XRwoykwUwVjjJaJcpaBU-22" value="out_valid" style="text;html=1;align=center;verticalAlign=middle;resizable=0;points=[];autosize=1;strokeColor=none;fillColor=none;" parent="1" vertex="1">
                    <mxGeometry x="290" y="450" width="70" height="30" as="geometry"/>
                </mxCell>
                <mxCell id="XRwoykwUwVjjJaJcpaBU-23" value="out_ready&lt;br&gt;" style="text;html=1;align=center;verticalAlign=middle;resizable=0;points=[];autosize=1;strokeColor=none;fillColor=none;" parent="1" vertex="1">
                    <mxGeometry x="380" y="450" width="80" height="30" as="geometry"/>
                </mxCell>
                <mxCell id="XRwoykwUwVjjJaJcpaBU-24" value="[IN_WIDTH-1:0]&lt;br&gt;out_data" style="text;html=1;align=center;verticalAlign=middle;resizable=0;points=[];autosize=1;strokeColor=none;fillColor=none;" parent="1" vertex="1">
                    <mxGeometry x="460" y="440" width="110" height="40" as="geometry"/>
                </mxCell>
                <mxCell id="KtWS5dSQyQU2HHUHNQoi-1" value="cache and prefetch the output of previous data given handshake signals&lt;br&gt;this is for retiming" style="text;html=1;align=left;verticalAlign=middle;resizable=0;points=[];autosize=1;strokeColor=none;fillColor=none;" parent="1" vertex="1">
                    <mxGeometry x="40" y="40" width="410" height="40" as="geometry"/>
                </mxCell>
            </root>
        </mxGraphModel>
    </diagram>
    <diagram id="lJQzIN43IeeqCp7ZCK3E" name="fixed_dot_product.sv">
        <mxGraphModel dx="730" dy="861" grid="1" gridSize="10" guides="1" tooltips="1" connect="1" arrows="1" fold="1" page="1" pageScale="1" pageWidth="1169" pageHeight="827" math="0" shadow="0">
            <root>
                <mxCell id="0"/>
                <mxCell id="1" parent="0"/>
                <mxCell id="5C2lRUkFRPGIG6oNkKxj-5" value="" style="group" vertex="1" connectable="0" parent="1">
                    <mxGeometry x="40" y="140" width="280" height="160" as="geometry"/>
                </mxCell>
                <mxCell id="5C2lRUkFRPGIG6oNkKxj-1" value="" style="rounded=0;whiteSpace=wrap;html=1;" vertex="1" parent="5C2lRUkFRPGIG6oNkKxj-5">
                    <mxGeometry width="280" height="160" as="geometry"/>
                </mxCell>
                <mxCell id="5C2lRUkFRPGIG6oNkKxj-3" value="" style="rounded=0;whiteSpace=wrap;html=1;" vertex="1" parent="5C2lRUkFRPGIG6oNkKxj-5">
                    <mxGeometry x="40" y="100" width="200" height="40" as="geometry"/>
                </mxCell>
                <mxCell id="5C2lRUkFRPGIG6oNkKxj-4" style="edgeStyle=none;html=1;exitX=0.5;exitY=1;exitDx=0;exitDy=0;entryX=0.5;entryY=0;entryDx=0;entryDy=0;strokeWidth=1;shape=flexArrow;" edge="1" parent="5C2lRUkFRPGIG6oNkKxj-5" source="u8-Zon-H8VpEMR7cHxff-1" target="5C2lRUkFRPGIG6oNkKxj-3">
                    <mxGeometry relative="1" as="geometry"/>
                </mxCell>
                <mxCell id="u8-Zon-H8VpEMR7cHxff-1" value="&quot;element-wise product&quot;&amp;nbsp;" style="rounded=0;whiteSpace=wrap;html=1;" vertex="1" parent="5C2lRUkFRPGIG6oNkKxj-5">
                    <mxGeometry x="40" y="30" width="200" height="40" as="geometry"/>
                </mxCell>
                <mxCell id="u8-Zon-H8VpEMR7cHxff-3" value="fixed_adder_tree.sv" style="text;html=1;align=center;verticalAlign=middle;resizable=0;points=[];autosize=1;strokeColor=none;fillColor=none;" vertex="1" parent="5C2lRUkFRPGIG6oNkKxj-5">
                    <mxGeometry x="75" y="105" width="130" height="30" as="geometry"/>
                </mxCell>
                <mxCell id="5C2lRUkFRPGIG6oNkKxj-2" value="fixed_dot_product.sv" style="text;html=1;align=center;verticalAlign=middle;resizable=0;points=[];autosize=1;strokeColor=none;fillColor=none;" vertex="1" parent="5C2lRUkFRPGIG6oNkKxj-5">
                    <mxGeometry width="130" height="30" as="geometry"/>
                </mxCell>
                <mxCell id="5C2lRUkFRPGIG6oNkKxj-6" value="fixed_doct_product.sv &lt;br&gt;- performs a inner product of two vectors and &lt;br&gt;- each vector has IN_SIZE fix-point numbers" style="text;html=1;align=left;verticalAlign=middle;resizable=0;points=[];autosize=1;strokeColor=none;fillColor=none;" vertex="1" parent="1">
                    <mxGeometry x="40" y="70" width="260" height="60" as="geometry"/>
                </mxCell>
            </root>
        </mxGraphModel>
    </diagram>
    <diagram id="-poQu-dE4NzukOtIjclx" name="fixed_linear.sv">
        <mxGraphModel dx="1262" dy="718" grid="1" gridSize="10" guides="1" tooltips="1" connect="1" arrows="1" fold="1" page="1" pageScale="1" pageWidth="1169" pageHeight="827" math="1" shadow="0">
            <root>
                <mxCell id="0"/>
                <mxCell id="1" parent="0"/>
                <mxCell id="faNVMTVjijkYrepHRjmZ-120" value="" style="rounded=1;whiteSpace=wrap;html=1;dashed=1;dashPattern=12 12;" vertex="1" parent="1">
                    <mxGeometry x="40" y="330" width="490" height="210" as="geometry"/>
                </mxCell>
                <mxCell id="faNVMTVjijkYrepHRjmZ-20" value="e.g., PARALLELISM = 3" style="text;html=1;align=center;verticalAlign=middle;resizable=0;points=[];autosize=1;strokeColor=none;fillColor=none;" vertex="1" parent="1">
                    <mxGeometry x="350" y="354" width="150" height="30" as="geometry"/>
                </mxCell>
                <mxCell id="faNVMTVjijkYrepHRjmZ-26" value="" style="group;fillColor=#f5f5f5;fontColor=#333333;strokeColor=#666666;" vertex="1" connectable="0" parent="1">
                    <mxGeometry x="80" y="404" width="80" height="20" as="geometry"/>
                </mxCell>
                <mxCell id="faNVMTVjijkYrepHRjmZ-1" value="" style="rounded=0;whiteSpace=wrap;html=1;fillColor=#f5f5f5;fontColor=#333333;strokeColor=#666666;" vertex="1" parent="faNVMTVjijkYrepHRjmZ-26">
                    <mxGeometry width="20" height="20" as="geometry"/>
                </mxCell>
                <mxCell id="faNVMTVjijkYrepHRjmZ-2" value="" style="rounded=0;whiteSpace=wrap;html=1;fillColor=#f5f5f5;fontColor=#333333;strokeColor=#666666;" vertex="1" parent="faNVMTVjijkYrepHRjmZ-26">
                    <mxGeometry x="20" width="20" height="20" as="geometry"/>
                </mxCell>
                <mxCell id="faNVMTVjijkYrepHRjmZ-3" value="" style="rounded=0;whiteSpace=wrap;html=1;fillColor=#f5f5f5;fontColor=#333333;strokeColor=#666666;" vertex="1" parent="faNVMTVjijkYrepHRjmZ-26">
                    <mxGeometry x="40" width="20" height="20" as="geometry"/>
                </mxCell>
                <mxCell id="faNVMTVjijkYrepHRjmZ-4" value="" style="rounded=0;whiteSpace=wrap;html=1;fillColor=#f5f5f5;fontColor=#333333;strokeColor=#666666;" vertex="1" parent="faNVMTVjijkYrepHRjmZ-26">
                    <mxGeometry x="60" width="20" height="20" as="geometry"/>
                </mxCell>
                <mxCell id="faNVMTVjijkYrepHRjmZ-49" value="" style="group;rotation=90;" vertex="1" connectable="0" parent="1">
                    <mxGeometry x="310" y="134" width="200" height="20" as="geometry"/>
                </mxCell>
                <mxCell id="faNVMTVjijkYrepHRjmZ-37" value="" style="group;rotation=90;fillColor=#dae8fc;strokeColor=#6c8ebf;" vertex="1" connectable="0" parent="faNVMTVjijkYrepHRjmZ-49">
                    <mxGeometry x="60" y="-60" width="80" height="20" as="geometry"/>
                </mxCell>
                <mxCell id="faNVMTVjijkYrepHRjmZ-38" value="" style="rounded=0;whiteSpace=wrap;html=1;rotation=90;fillColor=#dae8fc;strokeColor=#6c8ebf;" vertex="1" parent="faNVMTVjijkYrepHRjmZ-37">
                    <mxGeometry x="30" y="-30" width="20" height="20" as="geometry"/>
                </mxCell>
                <mxCell id="faNVMTVjijkYrepHRjmZ-39" value="" style="rounded=0;whiteSpace=wrap;html=1;rotation=90;fillColor=#dae8fc;strokeColor=#6c8ebf;" vertex="1" parent="faNVMTVjijkYrepHRjmZ-37">
                    <mxGeometry x="30" y="-10" width="20" height="20" as="geometry"/>
                </mxCell>
                <mxCell id="faNVMTVjijkYrepHRjmZ-40" value="" style="rounded=0;whiteSpace=wrap;html=1;rotation=90;fillColor=#dae8fc;strokeColor=#6c8ebf;" vertex="1" parent="faNVMTVjijkYrepHRjmZ-37">
                    <mxGeometry x="30" y="10" width="20" height="20" as="geometry"/>
                </mxCell>
                <mxCell id="faNVMTVjijkYrepHRjmZ-41" value="" style="rounded=0;whiteSpace=wrap;html=1;rotation=90;fillColor=#dae8fc;strokeColor=#6c8ebf;" vertex="1" parent="faNVMTVjijkYrepHRjmZ-37">
                    <mxGeometry x="30" y="30" width="20" height="20" as="geometry"/>
                </mxCell>
                <mxCell id="faNVMTVjijkYrepHRjmZ-42" value="" style="group;rotation=90;" vertex="1" connectable="0" parent="faNVMTVjijkYrepHRjmZ-49">
                    <mxGeometry x="60" y="20" width="80" height="20" as="geometry"/>
                </mxCell>
                <mxCell id="faNVMTVjijkYrepHRjmZ-43" value="" style="rounded=0;whiteSpace=wrap;html=1;rotation=90;" vertex="1" parent="faNVMTVjijkYrepHRjmZ-42">
                    <mxGeometry x="30" y="-30" width="20" height="20" as="geometry"/>
                </mxCell>
                <mxCell id="faNVMTVjijkYrepHRjmZ-44" value="" style="rounded=0;whiteSpace=wrap;html=1;rotation=90;" vertex="1" parent="faNVMTVjijkYrepHRjmZ-42">
                    <mxGeometry x="30" y="-10" width="20" height="20" as="geometry"/>
                </mxCell>
                <mxCell id="faNVMTVjijkYrepHRjmZ-45" value="" style="rounded=0;whiteSpace=wrap;html=1;rotation=90;" vertex="1" parent="faNVMTVjijkYrepHRjmZ-42">
                    <mxGeometry x="30" y="10" width="20" height="20" as="geometry"/>
                </mxCell>
                <mxCell id="faNVMTVjijkYrepHRjmZ-46" value="" style="rounded=0;whiteSpace=wrap;html=1;rotation=90;" vertex="1" parent="faNVMTVjijkYrepHRjmZ-42">
                    <mxGeometry x="30" y="30" width="20" height="20" as="geometry"/>
                </mxCell>
                <mxCell id="faNVMTVjijkYrepHRjmZ-47" value="" style="rounded=0;whiteSpace=wrap;html=1;rotation=90;" vertex="1" parent="faNVMTVjijkYrepHRjmZ-49">
                    <mxGeometry x="90" y="70" width="20" height="20" as="geometry"/>
                </mxCell>
                <mxCell id="faNVMTVjijkYrepHRjmZ-48" value="" style="rounded=0;whiteSpace=wrap;html=1;rotation=90;" vertex="1" parent="faNVMTVjijkYrepHRjmZ-49">
                    <mxGeometry x="90" y="90" width="20" height="20" as="geometry"/>
                </mxCell>
                <mxCell id="faNVMTVjijkYrepHRjmZ-50" value="" style="group;rotation=90;" vertex="1" connectable="0" parent="1">
                    <mxGeometry x="330" y="134" width="200" height="20" as="geometry"/>
                </mxCell>
                <mxCell id="faNVMTVjijkYrepHRjmZ-51" value="" style="group;rotation=90;fillColor=#d5e8d4;strokeColor=#82b366;" vertex="1" connectable="0" parent="faNVMTVjijkYrepHRjmZ-50">
                    <mxGeometry x="60" y="-60" width="80" height="20" as="geometry"/>
                </mxCell>
                <mxCell id="faNVMTVjijkYrepHRjmZ-52" value="" style="rounded=0;whiteSpace=wrap;html=1;rotation=90;fillColor=#d5e8d4;strokeColor=#82b366;" vertex="1" parent="faNVMTVjijkYrepHRjmZ-51">
                    <mxGeometry x="30" y="-30" width="20" height="20" as="geometry"/>
                </mxCell>
                <mxCell id="faNVMTVjijkYrepHRjmZ-53" value="" style="rounded=0;whiteSpace=wrap;html=1;rotation=90;fillColor=#d5e8d4;strokeColor=#82b366;" vertex="1" parent="faNVMTVjijkYrepHRjmZ-51">
                    <mxGeometry x="30" y="-10" width="20" height="20" as="geometry"/>
                </mxCell>
                <mxCell id="faNVMTVjijkYrepHRjmZ-54" value="" style="rounded=0;whiteSpace=wrap;html=1;rotation=90;fillColor=#d5e8d4;strokeColor=#82b366;" vertex="1" parent="faNVMTVjijkYrepHRjmZ-51">
                    <mxGeometry x="30" y="10" width="20" height="20" as="geometry"/>
                </mxCell>
                <mxCell id="faNVMTVjijkYrepHRjmZ-55" value="" style="rounded=0;whiteSpace=wrap;html=1;rotation=90;fillColor=#d5e8d4;strokeColor=#82b366;" vertex="1" parent="faNVMTVjijkYrepHRjmZ-51">
                    <mxGeometry x="30" y="30" width="20" height="20" as="geometry"/>
                </mxCell>
                <mxCell id="faNVMTVjijkYrepHRjmZ-56" value="" style="group;rotation=90;" vertex="1" connectable="0" parent="faNVMTVjijkYrepHRjmZ-50">
                    <mxGeometry x="60" y="20" width="80" height="20" as="geometry"/>
                </mxCell>
                <mxCell id="faNVMTVjijkYrepHRjmZ-57" value="" style="rounded=0;whiteSpace=wrap;html=1;rotation=90;" vertex="1" parent="faNVMTVjijkYrepHRjmZ-56">
                    <mxGeometry x="30" y="-30" width="20" height="20" as="geometry"/>
                </mxCell>
                <mxCell id="faNVMTVjijkYrepHRjmZ-58" value="" style="rounded=0;whiteSpace=wrap;html=1;rotation=90;" vertex="1" parent="faNVMTVjijkYrepHRjmZ-56">
                    <mxGeometry x="30" y="-10" width="20" height="20" as="geometry"/>
                </mxCell>
                <mxCell id="faNVMTVjijkYrepHRjmZ-59" value="" style="rounded=0;whiteSpace=wrap;html=1;rotation=90;" vertex="1" parent="faNVMTVjijkYrepHRjmZ-56">
                    <mxGeometry x="30" y="10" width="20" height="20" as="geometry"/>
                </mxCell>
                <mxCell id="faNVMTVjijkYrepHRjmZ-60" value="" style="rounded=0;whiteSpace=wrap;html=1;rotation=90;" vertex="1" parent="faNVMTVjijkYrepHRjmZ-56">
                    <mxGeometry x="30" y="30" width="20" height="20" as="geometry"/>
                </mxCell>
                <mxCell id="faNVMTVjijkYrepHRjmZ-61" value="" style="rounded=0;whiteSpace=wrap;html=1;rotation=90;" vertex="1" parent="faNVMTVjijkYrepHRjmZ-50">
                    <mxGeometry x="90" y="70" width="20" height="20" as="geometry"/>
                </mxCell>
                <mxCell id="faNVMTVjijkYrepHRjmZ-62" value="" style="rounded=0;whiteSpace=wrap;html=1;rotation=90;" vertex="1" parent="faNVMTVjijkYrepHRjmZ-50">
                    <mxGeometry x="90" y="90" width="20" height="20" as="geometry"/>
                </mxCell>
                <mxCell id="faNVMTVjijkYrepHRjmZ-63" value="" style="group;rotation=90;" vertex="1" connectable="0" parent="1">
                    <mxGeometry x="350" y="134" width="200" height="20" as="geometry"/>
                </mxCell>
                <mxCell id="faNVMTVjijkYrepHRjmZ-64" value="" style="group;rotation=90;fillColor=#ffe6cc;strokeColor=#d79b00;" vertex="1" connectable="0" parent="faNVMTVjijkYrepHRjmZ-63">
                    <mxGeometry x="60" y="-60" width="80" height="20" as="geometry"/>
                </mxCell>
                <mxCell id="faNVMTVjijkYrepHRjmZ-65" value="" style="rounded=0;whiteSpace=wrap;html=1;rotation=90;fillColor=#ffe6cc;strokeColor=#d79b00;" vertex="1" parent="faNVMTVjijkYrepHRjmZ-64">
                    <mxGeometry x="30" y="-30" width="20" height="20" as="geometry"/>
                </mxCell>
                <mxCell id="faNVMTVjijkYrepHRjmZ-66" value="" style="rounded=0;whiteSpace=wrap;html=1;rotation=90;fillColor=#ffe6cc;strokeColor=#d79b00;" vertex="1" parent="faNVMTVjijkYrepHRjmZ-64">
                    <mxGeometry x="30" y="-10" width="20" height="20" as="geometry"/>
                </mxCell>
                <mxCell id="faNVMTVjijkYrepHRjmZ-67" value="" style="rounded=0;whiteSpace=wrap;html=1;rotation=90;fillColor=#ffe6cc;strokeColor=#d79b00;" vertex="1" parent="faNVMTVjijkYrepHRjmZ-64">
                    <mxGeometry x="30" y="10" width="20" height="20" as="geometry"/>
                </mxCell>
                <mxCell id="faNVMTVjijkYrepHRjmZ-68" value="" style="rounded=0;whiteSpace=wrap;html=1;rotation=90;fillColor=#ffe6cc;strokeColor=#d79b00;" vertex="1" parent="faNVMTVjijkYrepHRjmZ-64">
                    <mxGeometry x="30" y="30" width="20" height="20" as="geometry"/>
                </mxCell>
                <mxCell id="faNVMTVjijkYrepHRjmZ-69" value="" style="group;rotation=90;" vertex="1" connectable="0" parent="faNVMTVjijkYrepHRjmZ-63">
                    <mxGeometry x="60" y="20" width="80" height="20" as="geometry"/>
                </mxCell>
                <mxCell id="faNVMTVjijkYrepHRjmZ-70" value="" style="rounded=0;whiteSpace=wrap;html=1;rotation=90;" vertex="1" parent="faNVMTVjijkYrepHRjmZ-69">
                    <mxGeometry x="30" y="-30" width="20" height="20" as="geometry"/>
                </mxCell>
                <mxCell id="faNVMTVjijkYrepHRjmZ-71" value="" style="rounded=0;whiteSpace=wrap;html=1;rotation=90;" vertex="1" parent="faNVMTVjijkYrepHRjmZ-69">
                    <mxGeometry x="30" y="-10" width="20" height="20" as="geometry"/>
                </mxCell>
                <mxCell id="faNVMTVjijkYrepHRjmZ-72" value="" style="rounded=0;whiteSpace=wrap;html=1;rotation=90;" vertex="1" parent="faNVMTVjijkYrepHRjmZ-69">
                    <mxGeometry x="30" y="10" width="20" height="20" as="geometry"/>
                </mxCell>
                <mxCell id="faNVMTVjijkYrepHRjmZ-73" value="" style="rounded=0;whiteSpace=wrap;html=1;rotation=90;" vertex="1" parent="faNVMTVjijkYrepHRjmZ-69">
                    <mxGeometry x="30" y="30" width="20" height="20" as="geometry"/>
                </mxCell>
                <mxCell id="faNVMTVjijkYrepHRjmZ-74" value="" style="rounded=0;whiteSpace=wrap;html=1;rotation=90;" vertex="1" parent="faNVMTVjijkYrepHRjmZ-63">
                    <mxGeometry x="90" y="70" width="20" height="20" as="geometry"/>
                </mxCell>
                <mxCell id="faNVMTVjijkYrepHRjmZ-75" value="" style="rounded=0;whiteSpace=wrap;html=1;rotation=90;" vertex="1" parent="faNVMTVjijkYrepHRjmZ-63">
                    <mxGeometry x="90" y="90" width="20" height="20" as="geometry"/>
                </mxCell>
                <mxCell id="faNVMTVjijkYrepHRjmZ-76" value="" style="group;rotation=90;" vertex="1" connectable="0" parent="1">
                    <mxGeometry x="370" y="134" width="200" height="20" as="geometry"/>
                </mxCell>
                <mxCell id="faNVMTVjijkYrepHRjmZ-77" value="" style="group;rotation=90;" vertex="1" connectable="0" parent="faNVMTVjijkYrepHRjmZ-76">
                    <mxGeometry x="60" y="-60" width="80" height="20" as="geometry"/>
                </mxCell>
                <mxCell id="faNVMTVjijkYrepHRjmZ-78" value="" style="rounded=0;whiteSpace=wrap;html=1;rotation=90;" vertex="1" parent="faNVMTVjijkYrepHRjmZ-77">
                    <mxGeometry x="30" y="-30" width="20" height="20" as="geometry"/>
                </mxCell>
                <mxCell id="faNVMTVjijkYrepHRjmZ-79" value="" style="rounded=0;whiteSpace=wrap;html=1;rotation=90;" vertex="1" parent="faNVMTVjijkYrepHRjmZ-77">
                    <mxGeometry x="30" y="-10" width="20" height="20" as="geometry"/>
                </mxCell>
                <mxCell id="faNVMTVjijkYrepHRjmZ-80" value="" style="rounded=0;whiteSpace=wrap;html=1;rotation=90;" vertex="1" parent="faNVMTVjijkYrepHRjmZ-77">
                    <mxGeometry x="30" y="10" width="20" height="20" as="geometry"/>
                </mxCell>
                <mxCell id="faNVMTVjijkYrepHRjmZ-81" value="" style="rounded=0;whiteSpace=wrap;html=1;rotation=90;" vertex="1" parent="faNVMTVjijkYrepHRjmZ-77">
                    <mxGeometry x="30" y="30" width="20" height="20" as="geometry"/>
                </mxCell>
                <mxCell id="faNVMTVjijkYrepHRjmZ-82" value="" style="group;rotation=90;" vertex="1" connectable="0" parent="faNVMTVjijkYrepHRjmZ-76">
                    <mxGeometry x="60" y="20" width="80" height="20" as="geometry"/>
                </mxCell>
                <mxCell id="faNVMTVjijkYrepHRjmZ-83" value="" style="rounded=0;whiteSpace=wrap;html=1;rotation=90;" vertex="1" parent="faNVMTVjijkYrepHRjmZ-82">
                    <mxGeometry x="30" y="-30" width="20" height="20" as="geometry"/>
                </mxCell>
                <mxCell id="faNVMTVjijkYrepHRjmZ-84" value="" style="rounded=0;whiteSpace=wrap;html=1;rotation=90;" vertex="1" parent="faNVMTVjijkYrepHRjmZ-82">
                    <mxGeometry x="30" y="-10" width="20" height="20" as="geometry"/>
                </mxCell>
                <mxCell id="faNVMTVjijkYrepHRjmZ-85" value="" style="rounded=0;whiteSpace=wrap;html=1;rotation=90;" vertex="1" parent="faNVMTVjijkYrepHRjmZ-82">
                    <mxGeometry x="30" y="10" width="20" height="20" as="geometry"/>
                </mxCell>
                <mxCell id="faNVMTVjijkYrepHRjmZ-86" value="" style="rounded=0;whiteSpace=wrap;html=1;rotation=90;" vertex="1" parent="faNVMTVjijkYrepHRjmZ-82">
                    <mxGeometry x="30" y="30" width="20" height="20" as="geometry"/>
                </mxCell>
                <mxCell id="faNVMTVjijkYrepHRjmZ-87" value="" style="rounded=0;whiteSpace=wrap;html=1;rotation=90;" vertex="1" parent="faNVMTVjijkYrepHRjmZ-76">
                    <mxGeometry x="90" y="70" width="20" height="20" as="geometry"/>
                </mxCell>
                <mxCell id="faNVMTVjijkYrepHRjmZ-88" value="" style="rounded=0;whiteSpace=wrap;html=1;rotation=90;" vertex="1" parent="faNVMTVjijkYrepHRjmZ-76">
                    <mxGeometry x="90" y="90" width="20" height="20" as="geometry"/>
                </mxCell>
                <mxCell id="faNVMTVjijkYrepHRjmZ-89" value="" style="group;rotation=90;" vertex="1" connectable="0" parent="1">
                    <mxGeometry x="390" y="134" width="200" height="20" as="geometry"/>
                </mxCell>
                <mxCell id="faNVMTVjijkYrepHRjmZ-90" value="" style="group;rotation=90;" vertex="1" connectable="0" parent="faNVMTVjijkYrepHRjmZ-89">
                    <mxGeometry x="60" y="-60" width="80" height="20" as="geometry"/>
                </mxCell>
                <mxCell id="faNVMTVjijkYrepHRjmZ-91" value="" style="rounded=0;whiteSpace=wrap;html=1;rotation=90;" vertex="1" parent="faNVMTVjijkYrepHRjmZ-90">
                    <mxGeometry x="30" y="-30" width="20" height="20" as="geometry"/>
                </mxCell>
                <mxCell id="faNVMTVjijkYrepHRjmZ-92" value="" style="rounded=0;whiteSpace=wrap;html=1;rotation=90;" vertex="1" parent="faNVMTVjijkYrepHRjmZ-90">
                    <mxGeometry x="30" y="-10" width="20" height="20" as="geometry"/>
                </mxCell>
                <mxCell id="faNVMTVjijkYrepHRjmZ-93" value="" style="rounded=0;whiteSpace=wrap;html=1;rotation=90;" vertex="1" parent="faNVMTVjijkYrepHRjmZ-90">
                    <mxGeometry x="30" y="10" width="20" height="20" as="geometry"/>
                </mxCell>
                <mxCell id="faNVMTVjijkYrepHRjmZ-94" value="" style="rounded=0;whiteSpace=wrap;html=1;rotation=90;" vertex="1" parent="faNVMTVjijkYrepHRjmZ-90">
                    <mxGeometry x="30" y="30" width="20" height="20" as="geometry"/>
                </mxCell>
                <mxCell id="faNVMTVjijkYrepHRjmZ-95" value="" style="group;rotation=90;" vertex="1" connectable="0" parent="faNVMTVjijkYrepHRjmZ-89">
                    <mxGeometry x="60" y="20" width="80" height="20" as="geometry"/>
                </mxCell>
                <mxCell id="faNVMTVjijkYrepHRjmZ-96" value="" style="rounded=0;whiteSpace=wrap;html=1;rotation=90;" vertex="1" parent="faNVMTVjijkYrepHRjmZ-95">
                    <mxGeometry x="30" y="-30" width="20" height="20" as="geometry"/>
                </mxCell>
                <mxCell id="faNVMTVjijkYrepHRjmZ-97" value="" style="rounded=0;whiteSpace=wrap;html=1;rotation=90;" vertex="1" parent="faNVMTVjijkYrepHRjmZ-95">
                    <mxGeometry x="30" y="-10" width="20" height="20" as="geometry"/>
                </mxCell>
                <mxCell id="faNVMTVjijkYrepHRjmZ-98" value="" style="rounded=0;whiteSpace=wrap;html=1;rotation=90;" vertex="1" parent="faNVMTVjijkYrepHRjmZ-95">
                    <mxGeometry x="30" y="10" width="20" height="20" as="geometry"/>
                </mxCell>
                <mxCell id="faNVMTVjijkYrepHRjmZ-99" value="" style="rounded=0;whiteSpace=wrap;html=1;rotation=90;" vertex="1" parent="faNVMTVjijkYrepHRjmZ-95">
                    <mxGeometry x="30" y="30" width="20" height="20" as="geometry"/>
                </mxCell>
                <mxCell id="faNVMTVjijkYrepHRjmZ-100" value="" style="rounded=0;whiteSpace=wrap;html=1;rotation=90;" vertex="1" parent="faNVMTVjijkYrepHRjmZ-89">
                    <mxGeometry x="90" y="70" width="20" height="20" as="geometry"/>
                </mxCell>
                <mxCell id="faNVMTVjijkYrepHRjmZ-101" value="" style="rounded=0;whiteSpace=wrap;html=1;rotation=90;" vertex="1" parent="faNVMTVjijkYrepHRjmZ-89">
                    <mxGeometry x="90" y="90" width="20" height="20" as="geometry"/>
                </mxCell>
                <mxCell id="faNVMTVjijkYrepHRjmZ-102" value="" style="group;rotation=90;" vertex="1" connectable="0" parent="1">
                    <mxGeometry x="410" y="134" width="200" height="20" as="geometry"/>
                </mxCell>
                <mxCell id="faNVMTVjijkYrepHRjmZ-103" value="" style="group;rotation=90;" vertex="1" connectable="0" parent="faNVMTVjijkYrepHRjmZ-102">
                    <mxGeometry x="60" y="-60" width="80" height="20" as="geometry"/>
                </mxCell>
                <mxCell id="faNVMTVjijkYrepHRjmZ-104" value="" style="rounded=0;whiteSpace=wrap;html=1;rotation=90;" vertex="1" parent="faNVMTVjijkYrepHRjmZ-103">
                    <mxGeometry x="30" y="-30" width="20" height="20" as="geometry"/>
                </mxCell>
                <mxCell id="faNVMTVjijkYrepHRjmZ-105" value="" style="rounded=0;whiteSpace=wrap;html=1;rotation=90;" vertex="1" parent="faNVMTVjijkYrepHRjmZ-103">
                    <mxGeometry x="30" y="-10" width="20" height="20" as="geometry"/>
                </mxCell>
                <mxCell id="faNVMTVjijkYrepHRjmZ-106" value="" style="rounded=0;whiteSpace=wrap;html=1;rotation=90;" vertex="1" parent="faNVMTVjijkYrepHRjmZ-103">
                    <mxGeometry x="30" y="10" width="20" height="20" as="geometry"/>
                </mxCell>
                <mxCell id="faNVMTVjijkYrepHRjmZ-107" value="" style="rounded=0;whiteSpace=wrap;html=1;rotation=90;" vertex="1" parent="faNVMTVjijkYrepHRjmZ-103">
                    <mxGeometry x="30" y="30" width="20" height="20" as="geometry"/>
                </mxCell>
                <mxCell id="faNVMTVjijkYrepHRjmZ-108" value="" style="group;rotation=90;" vertex="1" connectable="0" parent="faNVMTVjijkYrepHRjmZ-102">
                    <mxGeometry x="60" y="20" width="80" height="20" as="geometry"/>
                </mxCell>
                <mxCell id="faNVMTVjijkYrepHRjmZ-109" value="" style="rounded=0;whiteSpace=wrap;html=1;rotation=90;" vertex="1" parent="faNVMTVjijkYrepHRjmZ-108">
                    <mxGeometry x="30" y="-30" width="20" height="20" as="geometry"/>
                </mxCell>
                <mxCell id="faNVMTVjijkYrepHRjmZ-110" value="" style="rounded=0;whiteSpace=wrap;html=1;rotation=90;" vertex="1" parent="faNVMTVjijkYrepHRjmZ-108">
                    <mxGeometry x="30" y="-10" width="20" height="20" as="geometry"/>
                </mxCell>
                <mxCell id="faNVMTVjijkYrepHRjmZ-111" value="" style="rounded=0;whiteSpace=wrap;html=1;rotation=90;" vertex="1" parent="faNVMTVjijkYrepHRjmZ-108">
                    <mxGeometry x="30" y="10" width="20" height="20" as="geometry"/>
                </mxCell>
                <mxCell id="faNVMTVjijkYrepHRjmZ-112" value="" style="rounded=0;whiteSpace=wrap;html=1;rotation=90;" vertex="1" parent="faNVMTVjijkYrepHRjmZ-108">
                    <mxGeometry x="30" y="30" width="20" height="20" as="geometry"/>
                </mxCell>
                <mxCell id="faNVMTVjijkYrepHRjmZ-113" value="" style="rounded=0;whiteSpace=wrap;html=1;rotation=90;" vertex="1" parent="faNVMTVjijkYrepHRjmZ-102">
                    <mxGeometry x="90" y="70" width="20" height="20" as="geometry"/>
                </mxCell>
                <mxCell id="faNVMTVjijkYrepHRjmZ-114" value="" style="rounded=0;whiteSpace=wrap;html=1;rotation=90;" vertex="1" parent="faNVMTVjijkYrepHRjmZ-102">
                    <mxGeometry x="90" y="90" width="20" height="20" as="geometry"/>
                </mxCell>
                <mxCell id="faNVMTVjijkYrepHRjmZ-115" value="\(\mathbf{x}W\)" style="text;html=1;align=center;verticalAlign=middle;resizable=0;points=[];autosize=1;strokeColor=none;fillColor=none;" vertex="1" parent="1">
                    <mxGeometry x="20" y="39" width="100" height="30" as="geometry"/>
                </mxCell>
                <mxCell id="faNVMTVjijkYrepHRjmZ-116" value="" style="group" vertex="1" connectable="0" parent="1">
                    <mxGeometry x="120" y="44" width="200" height="20" as="geometry"/>
                </mxCell>
                <mxCell id="faNVMTVjijkYrepHRjmZ-25" value="" style="group;fillColor=#f5f5f5;fontColor=#333333;strokeColor=#666666;" vertex="1" connectable="0" parent="faNVMTVjijkYrepHRjmZ-116">
                    <mxGeometry width="80" height="20" as="geometry"/>
                </mxCell>
                <mxCell id="faNVMTVjijkYrepHRjmZ-21" value="" style="rounded=0;whiteSpace=wrap;html=1;fillColor=#f5f5f5;fontColor=#333333;strokeColor=#666666;" vertex="1" parent="faNVMTVjijkYrepHRjmZ-25">
                    <mxGeometry width="20" height="20" as="geometry"/>
                </mxCell>
                <mxCell id="faNVMTVjijkYrepHRjmZ-22" value="" style="rounded=0;whiteSpace=wrap;html=1;fillColor=#f5f5f5;fontColor=#333333;strokeColor=#666666;" vertex="1" parent="faNVMTVjijkYrepHRjmZ-25">
                    <mxGeometry x="20" width="20" height="20" as="geometry"/>
                </mxCell>
                <mxCell id="faNVMTVjijkYrepHRjmZ-23" value="" style="rounded=0;whiteSpace=wrap;html=1;fillColor=#f5f5f5;fontColor=#333333;strokeColor=#666666;" vertex="1" parent="faNVMTVjijkYrepHRjmZ-25">
                    <mxGeometry x="40" width="20" height="20" as="geometry"/>
                </mxCell>
                <mxCell id="faNVMTVjijkYrepHRjmZ-24" value="" style="rounded=0;whiteSpace=wrap;html=1;fillColor=#f5f5f5;fontColor=#333333;strokeColor=#666666;" vertex="1" parent="faNVMTVjijkYrepHRjmZ-25">
                    <mxGeometry x="60" width="20" height="20" as="geometry"/>
                </mxCell>
                <mxCell id="faNVMTVjijkYrepHRjmZ-27" value="" style="group" vertex="1" connectable="0" parent="faNVMTVjijkYrepHRjmZ-116">
                    <mxGeometry x="80" width="80" height="20" as="geometry"/>
                </mxCell>
                <mxCell id="faNVMTVjijkYrepHRjmZ-28" value="" style="rounded=0;whiteSpace=wrap;html=1;" vertex="1" parent="faNVMTVjijkYrepHRjmZ-27">
                    <mxGeometry width="20" height="20" as="geometry"/>
                </mxCell>
                <mxCell id="faNVMTVjijkYrepHRjmZ-29" value="" style="rounded=0;whiteSpace=wrap;html=1;" vertex="1" parent="faNVMTVjijkYrepHRjmZ-27">
                    <mxGeometry x="20" width="20" height="20" as="geometry"/>
                </mxCell>
                <mxCell id="faNVMTVjijkYrepHRjmZ-30" value="" style="rounded=0;whiteSpace=wrap;html=1;" vertex="1" parent="faNVMTVjijkYrepHRjmZ-27">
                    <mxGeometry x="40" width="20" height="20" as="geometry"/>
                </mxCell>
                <mxCell id="faNVMTVjijkYrepHRjmZ-31" value="" style="rounded=0;whiteSpace=wrap;html=1;" vertex="1" parent="faNVMTVjijkYrepHRjmZ-27">
                    <mxGeometry x="60" width="20" height="20" as="geometry"/>
                </mxCell>
                <mxCell id="faNVMTVjijkYrepHRjmZ-33" value="" style="rounded=0;whiteSpace=wrap;html=1;" vertex="1" parent="faNVMTVjijkYrepHRjmZ-116">
                    <mxGeometry x="160" width="20" height="20" as="geometry"/>
                </mxCell>
                <mxCell id="faNVMTVjijkYrepHRjmZ-34" value="" style="rounded=0;whiteSpace=wrap;html=1;" vertex="1" parent="faNVMTVjijkYrepHRjmZ-116">
                    <mxGeometry x="180" width="20" height="20" as="geometry"/>
                </mxCell>
                <mxCell id="faNVMTVjijkYrepHRjmZ-117" value="" style="group" vertex="1" connectable="0" parent="1">
                    <mxGeometry x="360" y="404" width="60" height="80" as="geometry"/>
                </mxCell>
                <mxCell id="faNVMTVjijkYrepHRjmZ-9" value="" style="group;rotation=90;fillColor=#dae8fc;strokeColor=#6c8ebf;" vertex="1" connectable="0" parent="faNVMTVjijkYrepHRjmZ-117">
                    <mxGeometry x="-30" y="30" width="80" height="20" as="geometry"/>
                </mxCell>
                <mxCell id="faNVMTVjijkYrepHRjmZ-5" value="" style="rounded=0;whiteSpace=wrap;html=1;rotation=90;fillColor=#dae8fc;strokeColor=#6c8ebf;" vertex="1" parent="faNVMTVjijkYrepHRjmZ-9">
                    <mxGeometry x="30" y="-30" width="20" height="20" as="geometry"/>
                </mxCell>
                <mxCell id="faNVMTVjijkYrepHRjmZ-6" value="" style="rounded=0;whiteSpace=wrap;html=1;rotation=90;fillColor=#dae8fc;strokeColor=#6c8ebf;" vertex="1" parent="faNVMTVjijkYrepHRjmZ-9">
                    <mxGeometry x="30" y="-10" width="20" height="20" as="geometry"/>
                </mxCell>
                <mxCell id="faNVMTVjijkYrepHRjmZ-7" value="" style="rounded=0;whiteSpace=wrap;html=1;rotation=90;fillColor=#dae8fc;strokeColor=#6c8ebf;" vertex="1" parent="faNVMTVjijkYrepHRjmZ-9">
                    <mxGeometry x="30" y="10" width="20" height="20" as="geometry"/>
                </mxCell>
                <mxCell id="faNVMTVjijkYrepHRjmZ-8" value="" style="rounded=0;whiteSpace=wrap;html=1;rotation=90;fillColor=#dae8fc;strokeColor=#6c8ebf;" vertex="1" parent="faNVMTVjijkYrepHRjmZ-9">
                    <mxGeometry x="30" y="30" width="20" height="20" as="geometry"/>
                </mxCell>
                <mxCell id="faNVMTVjijkYrepHRjmZ-10" value="" style="group;rotation=90;fillColor=#d5e8d4;strokeColor=#82b366;" vertex="1" connectable="0" parent="faNVMTVjijkYrepHRjmZ-117">
                    <mxGeometry x="-10" y="30" width="80" height="20" as="geometry"/>
                </mxCell>
                <mxCell id="faNVMTVjijkYrepHRjmZ-11" value="" style="rounded=0;whiteSpace=wrap;html=1;rotation=90;fillColor=#d5e8d4;strokeColor=#82b366;" vertex="1" parent="faNVMTVjijkYrepHRjmZ-10">
                    <mxGeometry x="30" y="-30" width="20" height="20" as="geometry"/>
                </mxCell>
                <mxCell id="faNVMTVjijkYrepHRjmZ-12" value="" style="rounded=0;whiteSpace=wrap;html=1;rotation=90;fillColor=#d5e8d4;strokeColor=#82b366;" vertex="1" parent="faNVMTVjijkYrepHRjmZ-10">
                    <mxGeometry x="30" y="-10" width="20" height="20" as="geometry"/>
                </mxCell>
                <mxCell id="faNVMTVjijkYrepHRjmZ-13" value="" style="rounded=0;whiteSpace=wrap;html=1;rotation=90;fillColor=#d5e8d4;strokeColor=#82b366;" vertex="1" parent="faNVMTVjijkYrepHRjmZ-10">
                    <mxGeometry x="30" y="10" width="20" height="20" as="geometry"/>
                </mxCell>
                <mxCell id="faNVMTVjijkYrepHRjmZ-14" value="" style="rounded=0;whiteSpace=wrap;html=1;rotation=90;fillColor=#d5e8d4;strokeColor=#82b366;" vertex="1" parent="faNVMTVjijkYrepHRjmZ-10">
                    <mxGeometry x="30" y="30" width="20" height="20" as="geometry"/>
                </mxCell>
                <mxCell id="faNVMTVjijkYrepHRjmZ-15" value="" style="group;rotation=90;fillColor=#ffe6cc;strokeColor=#d79b00;" vertex="1" connectable="0" parent="faNVMTVjijkYrepHRjmZ-117">
                    <mxGeometry x="10" y="30" width="80" height="20" as="geometry"/>
                </mxCell>
                <mxCell id="faNVMTVjijkYrepHRjmZ-16" value="" style="rounded=0;whiteSpace=wrap;html=1;rotation=90;fillColor=#ffe6cc;strokeColor=#d79b00;" vertex="1" parent="faNVMTVjijkYrepHRjmZ-15">
                    <mxGeometry x="30" y="-30" width="20" height="20" as="geometry"/>
                </mxCell>
                <mxCell id="faNVMTVjijkYrepHRjmZ-17" value="" style="rounded=0;whiteSpace=wrap;html=1;rotation=90;fillColor=#ffe6cc;strokeColor=#d79b00;" vertex="1" parent="faNVMTVjijkYrepHRjmZ-15">
                    <mxGeometry x="30" y="-10" width="20" height="20" as="geometry"/>
                </mxCell>
                <mxCell id="faNVMTVjijkYrepHRjmZ-18" value="" style="rounded=0;whiteSpace=wrap;html=1;rotation=90;fillColor=#ffe6cc;strokeColor=#d79b00;" vertex="1" parent="faNVMTVjijkYrepHRjmZ-15">
                    <mxGeometry x="30" y="10" width="20" height="20" as="geometry"/>
                </mxCell>
                <mxCell id="faNVMTVjijkYrepHRjmZ-19" value="" style="rounded=0;whiteSpace=wrap;html=1;rotation=90;fillColor=#ffe6cc;strokeColor=#d79b00;" vertex="1" parent="faNVMTVjijkYrepHRjmZ-15">
                    <mxGeometry x="30" y="30" width="20" height="20" as="geometry"/>
                </mxCell>
                <mxCell id="faNVMTVjijkYrepHRjmZ-118" value="\(\mathbf{x}\text{[:IN_SIZE]}\)" style="text;html=1;align=left;verticalAlign=middle;resizable=0;points=[];autosize=1;strokeColor=none;fillColor=none;" vertex="1" parent="1">
                    <mxGeometry x="80" y="364" width="180" height="30" as="geometry"/>
                </mxCell>
                <mxCell id="faNVMTVjijkYrepHRjmZ-119" value="" style="shape=curlyBracket;whiteSpace=wrap;html=1;rounded=1;flipH=1;labelPosition=right;verticalLabelPosition=middle;align=left;verticalAlign=middle;rotation=-90;" vertex="1" parent="1">
                    <mxGeometry x="385" y="369" width="10" height="40" as="geometry"/>
                </mxCell>
                <mxCell id="faNVMTVjijkYrepHRjmZ-121" value="fixed_linear.sv" style="text;html=1;align=center;verticalAlign=middle;resizable=0;points=[];autosize=1;strokeColor=none;fillColor=none;dashed=1;dashPattern=12 12;" vertex="1" parent="1">
                    <mxGeometry x="50" y="339" width="100" height="30" as="geometry"/>
                </mxCell>
                <mxCell id="faNVMTVjijkYrepHRjmZ-122" value="" style="rounded=1;whiteSpace=wrap;html=1;dashed=1;dashPattern=12 12;" vertex="1" parent="1">
                    <mxGeometry x="710" y="330" width="270" height="200" as="geometry"/>
                </mxCell>
                <mxCell id="faNVMTVjijkYrepHRjmZ-123" value="fixed_linear2d.sv" style="text;html=1;align=center;verticalAlign=middle;resizable=0;points=[];autosize=1;strokeColor=none;fillColor=none;" vertex="1" parent="1">
                    <mxGeometry x="720" y="334" width="110" height="30" as="geometry"/>
                </mxCell>
            </root>
        </mxGraphModel>
    </diagram>
</mxfile>